<?xml version="1.0" encoding="UTF-8" standalone="no"?>
<!-- Created with Inkscape (http://www.inkscape.org/) -->

<svg
   width="70.814735mm"
   height="27.498505mm"
   viewBox="0 0 70.814735 27.498505"
   version="1.1"
   id="svg5"
   xml:space="preserve"
   inkscape:version="1.1.2 (0a00cf5339, 2022-02-04)"
   sodipodi:docname="banner-bg.svg"
   xmlns:inkscape="http://www.inkscape.org/namespaces/inkscape"
   xmlns:sodipodi="http://sodipodi.sourceforge.net/DTD/sodipodi-0.dtd"
   xmlns="http://www.w3.org/2000/svg"
   xmlns:svg="http://www.w3.org/2000/svg"><sodipodi:namedview
     id="namedview7"
     pagecolor="#ffffff"
     bordercolor="#000000"
     borderopacity="0.25"
     inkscape:showpageshadow="2"
     inkscape:pageopacity="0.0"
     inkscape:pagecheckerboard="0"
     inkscape:deskcolor="#d1d1d1"
     inkscape:document-units="mm"
     showgrid="false"
     inkscape:zoom="4.3490241"
     inkscape:cx="150.95341"
     inkscape:cy="50.471094"
     inkscape:window-width="1920"
     inkscape:window-height="1009"
     inkscape:window-x="0"
     inkscape:window-y="0"
     inkscape:window-maximized="1"
     inkscape:current-layer="text242"
     inkscape:pageshadow="2" /><defs
     id="defs2"><clipPath
       id="clipPath14"
       clipPathUnits="userSpaceOnUse"><path
         id="path12"
         d="M 0,8.039989 H 375 V 383.03998 H 0 Z" /></clipPath><clipPath
       id="clipPath24"
       clipPathUnits="userSpaceOnUse"><path
         style="clip-rule:evenodd"
         id="path22"
         d="M 0,0 H 1562.5 V 1562.5 H 0 Z" /></clipPath><clipPath
       id="clipPath36"
       clipPathUnits="userSpaceOnUse"><path
         style="clip-rule:evenodd"
         id="path34"
         d="M 0,0 H 1562.5 V 1562.5 H 0 Z" /></clipPath><clipPath
       id="clipPath48"
       clipPathUnits="userSpaceOnUse"><path
         style="clip-rule:evenodd"
         id="path46"
         d="M 0,0 H 1562.5 V 1562.5 H 0 Z" /></clipPath></defs><rect
     style="fill:#312527;fill-opacity:1;stroke-width:1.35"
     id="rect448"
     width="70.814735"
     height="27.498505"
     x="0"
     y="0"
     ry="9.5237026"
     inkscape:label="rect448" /><g
     inkscape:label="Warstwa 1"
     inkscape:groupmode="layer"
     id="layer1"
     transform="translate(-18.372896,-102.45019)"><text
       xml:space="preserve"
       style="font-size:8.46667px;font-family:'Kristen ITC';-inkscape-font-specification:'Kristen ITC';fill:#ffe680;stroke-width:1.35"
       x="39.23291"
       y="102.21205"
       id="text236"><tspan
         sodipodi:role="line"
         id="tspan234"
         style="stroke-width:1.35"
         x="39.23291"
         y="102.21205" /><tspan
         sodipodi:role="line"
         style="stroke-width:1.35"
         id="tspan238"
         x="39.23291"
         y="112.79539" /></text></g><g
     aria-label="Kanbun"
     id="text242"
     style="font-size:8.46667px;font-family:'Kristen ITC';-inkscape-font-specification:'Kristen ITC';fill:#f9f9f9;stroke-width:1.35"><path
       d="m 33.030778,10.794381 q 0.160867,-0.0254 0.287867,0.0762 0.127,0.09313 0.143933,0.254 0.0254,0.160867 -0.0762,0.296334 l -3.937001,5.139268 q -0.118534,0.152401 -0.313267,0.152401 -0.05927,0 -0.127,-0.01693 -0.118534,-0.04233 -0.194734,-0.143933 -0.06773,-0.1016 -0.06773,-0.2286 v -5.147736 q 0,-0.160866 0.110067,-0.270933 0.118533,-0.118533 0.2794,-0.118533 0.169333,0 0.2794,0.118533 0.118533,0.110067 0.118533,0.270933 v 3.987802 l 3.234268,-4.224868 q 0.1016,-0.127 0.262467,-0.143934 z m -0.829734,4.038602 1.126067,1.2192 q 0.110067,0.118534 0.1016,0.287867 -0.0085,0.160867 -0.127,0.270934 -0.110066,0.1016 -0.262466,0.1016 -0.169334,0 -0.287867,-0.127001 l -1.126067,-1.2192 q -0.110067,-0.118533 -0.110067,-0.2794 0.0085,-0.169334 0.127,-0.2794 0.118533,-0.110067 0.2794,-0.1016 0.169334,0.0085 0.2794,0.127 z"
       style="font-family:SHUTTLE-X;-inkscape-font-specification:SHUTTLE-X"
       id="path1048" /><path
       d="m 38.415562,12.970315 q 0.1016,0 0.194734,0.05927 0.09313,0.0508 0.143933,0.143933 0.0508,0.08467 0.0508,0.194734 v 2.954868 q 0,0.160866 -0.118533,0.2794 -0.110067,0.110067 -0.270934,0.110067 -0.160866,0 -0.2794,-0.110067 -0.118533,-0.118534 -0.118533,-0.2794 v -1.667934 q 0,-0.372534 -0.262467,-0.635001 -0.262467,-0.262466 -0.635,-0.262466 h -1.354667 q -0.245534,0 -0.4572,0.118533 -0.203201,0.118533 -0.321734,0.3302 -0.118533,0.2032 -0.118533,0.448734 v 0.372533 q 0,0.372534 0.262466,0.635 0.262467,0.262467 0.635001,0.262467 h 1.143 q 0.160867,0 0.270934,0.118534 0.118533,0.110066 0.118533,0.2794 0,0.160866 -0.118533,0.2794 -0.110067,0.110067 -0.270934,0.110067 h -1.143 q -0.702734,0 -1.193801,-0.491067 -0.491067,-0.491067 -0.491067,-1.193801 v -0.372533 q 0,-0.694267 0.491067,-1.185334 0.491067,-0.499534 1.193801,-0.499534 h 1.354667 q 0.499533,0 0.922867,0.270934 0.03387,-0.118534 0.135467,-0.194734 0.1016,-0.0762 0.237066,-0.0762 z"
       style="font-family:SHUTTLE-X;-inkscape-font-specification:SHUTTLE-X"
       id="path1050" /><path
       d="m 42.987558,12.970315 q 0.702733,0 1.1938,0.499534 0.491067,0.491067 0.491067,1.185334 v 1.667934 q 0,0.160866 -0.118533,0.2794 -0.110067,0.110067 -0.270934,0.110067 -0.160866,0 -0.2794,-0.110067 -0.118533,-0.118534 -0.118533,-0.2794 v -1.667934 q 0,-0.372534 -0.262467,-0.635001 -0.262467,-0.262466 -0.635,-0.262466 h -1.354667 q -0.372534,0 -0.635001,0.262466 -0.262466,0.262467 -0.262466,0.635001 v 1.667934 q 0,0.160866 -0.118534,0.2794 -0.110067,0.110067 -0.2794,0.110067 -0.160867,0 -0.2794,-0.110067 -0.110067,-0.118534 -0.110067,-0.2794 v -2.954868 q 0,-0.169334 0.110067,-0.2794 0.118533,-0.118534 0.2794,-0.118534 0.08467,0 0.160867,0.04233 0.08467,0.03387 0.135467,0.09313 0.0508,0.05927 0.0762,0.135467 0.423333,-0.270934 0.922867,-0.270934 z"
       style="font-family:SHUTTLE-X;-inkscape-font-specification:SHUTTLE-X"
       id="path1052" /><path
       d="m 48.78721,12.970315 q 0.702733,0 1.1938,0.499534 0.491067,0.491067 0.491067,1.185334 v 0.372533 q 0,0.702734 -0.491067,1.193801 -0.491067,0.491067 -1.1938,0.491067 h -1.143001 q -0.160866,0 -0.2794,-0.110067 -0.110066,-0.118534 -0.110066,-0.2794 0,-0.169334 0.110066,-0.2794 0.118534,-0.118534 0.2794,-0.118534 h 1.143001 q 0.372533,0 0.635,-0.262467 0.262467,-0.262466 0.262467,-0.635 v -0.372533 q 0,-0.245534 -0.118533,-0.448734 -0.118534,-0.211667 -0.330201,-0.3302 -0.2032,-0.118533 -0.448733,-0.118533 h -1.354667 q -0.245534,0 -0.457201,0.118533 -0.2032,0.118533 -0.321733,0.3302 -0.118533,0.2032 -0.118533,0.448734 v 1.667934 q 0,0.160866 -0.118534,0.2794 -0.110066,0.110067 -0.2794,0.110067 -0.160867,0 -0.2794,-0.110067 -0.110067,-0.118534 -0.110067,-0.2794 v -5.147736 q 0,-0.160866 0.110067,-0.270933 0.118533,-0.118533 0.2794,-0.118533 0.169334,0 0.2794,0.118533 0.118534,0.110067 0.118534,0.270933 v 2.057401 q 0.4064,-0.262467 0.897467,-0.262467 z"
       style="font-family:SHUTTLE-X;-inkscape-font-specification:SHUTTLE-X"
       id="path1054" /><path
       d="m 55.721403,12.970315 q 0.160867,0 0.270933,0.118534 0.118534,0.110066 0.118534,0.2794 v 2.954868 q 0,0.160866 -0.118534,0.2794 -0.110066,0.110067 -0.270933,0.110067 -0.135467,0 -0.237067,-0.0762 -0.1016,-0.0762 -0.135467,-0.194734 -0.423333,0.270934 -0.922867,0.270934 h -1.354667 q -0.702733,0 -1.1938,-0.491067 -0.491067,-0.491067 -0.491067,-1.193801 v -1.659467 q 0,-0.169334 0.110067,-0.2794 0.118533,-0.118534 0.2794,-0.118534 0.169333,0 0.2794,0.118534 0.118533,0.110066 0.118533,0.2794 v 1.659467 q 0,0.186267 0.06773,0.3556 0.06773,0.160867 0.186266,0.287867 0.127,0.118534 0.287867,0.186267 0.169333,0.06773 0.3556,0.06773 h 1.354667 q 0.372534,0 0.635001,-0.262467 0.262466,-0.262466 0.262466,-0.626533 v -1.667934 q 0,-0.08467 0.03387,-0.1524 0.03387,-0.0762 0.08467,-0.127 0.0508,-0.0508 0.118533,-0.08467 0.0762,-0.03387 0.160867,-0.03387 z"
       style="font-family:SHUTTLE-X;-inkscape-font-specification:SHUTTLE-X"
       id="path1056" /><path
       d="m 60.293388,12.970315 q 0.702733,0 1.1938,0.499534 0.491067,0.491067 0.491067,1.185334 v 1.667934 q 0,0.160866 -0.118533,0.2794 -0.110067,0.110067 -0.270934,0.110067 -0.160866,0 -0.2794,-0.110067 -0.118533,-0.118534 -0.118533,-0.2794 v -1.667934 q 0,-0.372534 -0.262467,-0.635001 -0.262467,-0.262466 -0.635,-0.262466 h -1.354667 q -0.372534,0 -0.635001,0.262466 -0.262466,0.262467 -0.262466,0.635001 v 1.667934 q 0,0.160866 -0.118534,0.2794 -0.110067,0.110067 -0.2794,0.110067 -0.160867,0 -0.2794,-0.110067 -0.110067,-0.118534 -0.110067,-0.2794 v -2.954868 q 0,-0.169334 0.110067,-0.2794 0.118533,-0.118534 0.2794,-0.118534 0.08467,0 0.160867,0.04233 0.08467,0.03387 0.135467,0.09313 0.0508,0.05927 0.0762,0.135467 0.423333,-0.270934 0.922867,-0.270934 z"
       style="font-family:SHUTTLE-X;-inkscape-font-specification:SHUTTLE-X"
       id="path1058" /></g><g
     id="g14318"
     transform="matrix(0.57108275,0,0,0.57108275,40.675435,-9.1473276)"><rect
       style="fill:#ea701f;fill-opacity:1;stroke:none;stroke-width:2.23283;stroke-linecap:round;stroke-linejoin:round;stroke-dasharray:none;stroke-opacity:1;paint-order:normal"
       id="rect12091"
       width="7.9154115"
       height="29.596756"
       x="-55.752026"
       y="25.294901"
       ry="3.9577057" /><rect
       style="fill:#3e8ccc;fill-opacity:1;stroke:none;stroke-width:1.57884;stroke-linecap:round;stroke-linejoin:round;stroke-dasharray:none;stroke-opacity:1;paint-order:normal"
       id="rect12091-8"
       width="7.9154115"
       height="14.798378"
       x="-45.599651"
       y="25.294901"
       ry="3.9577057" /><rect
       style="fill:#e53737;fill-opacity:1;stroke:none;stroke-width:2.00723;stroke-linecap:round;stroke-linejoin:round;stroke-dasharray:none;stroke-opacity:1;paint-order:normal"
       id="rect12091-8-3"
       width="7.9154115"
       height="23.918308"
       x="-35.447277"
       y="25.294901"
       ry="3.9577057" /></g></svg>
